HIERARCHY
ROOT Hips
{
	OFFSET 0.000000 0.000000 0.000000 
	CHANNELS 6 Xposition Yposition Zposition Zrotation Yrotation Xrotation
	JOINT LeftUpLeg
	{
		OFFSET 1.363060 -1.794630 0.839290 
		CHANNELS 3 Zrotation Yrotation Xrotation
		JOINT LeftLeg
		{
			OFFSET 2.448110 -6.726130 0.000000 
			CHANNELS 3 Zrotation Yrotation Xrotation
			JOINT LeftFoot
			{
				OFFSET 2.562200 -7.039590 0.000000 
				CHANNELS 3 Zrotation Yrotation Xrotation
				JOINT LeftToeBase
				{
					OFFSET 0.157640 -0.433110 2.322550 
					CHANNELS 3 Zrotation Yrotation Xrotation
					End Site
					{
						OFFSET 0.000000 0.000000 0.000000 
					}
				}
			}
		}
	}
	JOINT RightUpLeg
	{
		OFFSET -1.305520 -1.794630 0.839290 
		CHANNELS 3 Zrotation Yrotation Xrotation
		JOINT RightLeg
		{
			OFFSET -2.542530 -6.985550 0.000000 
			CHANNELS 3 Zrotation Yrotation Xrotation
			JOINT RightFoot
			{
				OFFSET -2.568260 -7.056230 0.000000 
				CHANNELS 3 Zrotation Yrotation Xrotation
				JOINT RightToeBase
				{
					OFFSET -0.164730 -0.452590 2.363150 
					CHANNELS 3 Zrotation Yrotation Xrotation
					End Site
					{
						OFFSET 0.000000 0.000000 0.000000 
					}
				}
			}
		}
	}
	JOINT Spine
	{
		OFFSET 0.028270 2.035590 -0.193380 
		CHANNELS 3 Zrotation Yrotation Xrotation
		JOINT Spine1
		{
			OFFSET 0.056720 2.048850 -0.042750 
			CHANNELS 3 Zrotation Yrotation Xrotation
			JOINT Neck1
			{
				OFFSET -0.054170 1.746240 0.172020 
				CHANNELS 3 Zrotation Yrotation Xrotation
				JOINT Head
				{
					OFFSET 0.104070 1.761360 -0.123970 
					CHANNELS 3 Zrotation Yrotation Xrotation
					End Site
					{
						OFFSET 0.000000 0.000000 0.000000 
					}
				}
			}
			JOINT LeftArm
			{
				OFFSET 3.362410 1.200890 -0.311210 
				CHANNELS 3 Zrotation Yrotation Xrotation
				JOINT LeftForeArm
				{
					OFFSET 4.983000 -0.000000 -0.000000 
					CHANNELS 3 Zrotation Yrotation Xrotation
					JOINT LeftHand
					{
						OFFSET 3.483560 -0.000000 -0.000000 
						CHANNELS 3 Zrotation Yrotation Xrotation
						JOINT LeftHandIndex1
						{
							OFFSET 0.715260 -0.000000 -0.000000 
							CHANNELS 3 Zrotation Yrotation Xrotation
							End Site
							{
								OFFSET 0.000000 0.000000 0.000000 
							}
						}
					}
				}
			}
			JOINT RightArm
			{
				OFFSET -3.136600 1.374050 -0.404650 
				CHANNELS 3 Zrotation Yrotation Xrotation
				JOINT RightForeArm
				{
					OFFSET -5.241900 -0.000000 -0.000000 
					CHANNELS 3 Zrotation Yrotation Xrotation
					JOINT RightHand
					{
						OFFSET -3.444170 -0.000000 -0.000000 
						CHANNELS 3 Zrotation Yrotation Xrotation
						JOINT RightHandIndex1
						{
							OFFSET -0.622530 -0.000000 -0.000000 
							CHANNELS 3 Zrotation Yrotation Xrotation
							End Site
							{
								OFFSET 0.000000 0.000000 0.000000 
							}
						}
					}
				}
			}
		}
	}
}
MOTION
Frames: 16
Frame Time: 0.041667
-8.727812 21.134082 0.749959 -13.021795 -81.296673 -165.285904 -5.361343 7.433141 -29.888846 3.646985 14.059461 36.367431 -0.920212 12.673932 26.588138 0.827400 5.803400 16.215100 -0.557109 -12.408103 33.341947 -3.426503 -12.480712 32.623174 -7.562115 -16.961876 55.424215 -0.398800 -4.054600 11.230300 -0.110982 -0.500973 -5.049623 -2.317578 -0.049575 -3.384404 0.823000 -2.605586 -17.533607 0.793900 -1.429700 -4.647700 45.692031 -5.772102 -76.766031 12.019549 -25.793955 -4.306213 -5.473870 1.260692 -4.586117 -7.125000 0.000000 0.000000 -48.592339 6.974323 -76.442337 -14.126070 29.023047 -6.234697 6.998561 6.960545 -6.307868 7.125000 0.000000 0.000000 
-8.736243 20.997625 0.755617 -10.936580 -81.024810 -167.130087 -4.435121 6.725365 -30.013677 3.139569 13.325295 33.519148 -1.587163 14.853874 27.497589 0.601200 4.963500 13.804500 -0.980392 -12.259201 35.304091 -3.290300 -12.214361 31.762338 -7.728071 -17.766746 55.984672 -0.412300 -4.121800 11.419600 -0.063329 -0.358442 -5.040953 -2.376897 0.018978 -3.342773 0.843023 -2.523086 -17.409199 0.801400 -1.396000 -4.545500 46.394189 -5.444132 -77.335739 10.733266 -24.462107 -3.395685 -5.954383 1.478080 -4.050521 -7.125000 0.000000 0.000000 -49.468689 6.415473 -80.022220 -12.329640 27.473853 -5.134821 7.128898 6.844141 -4.702869 7.125000 0.000000 0.000000 
-8.747781 20.848965 0.756171 -9.931943 -80.717789 -167.939804 -3.537033 5.914590 -30.007374 2.705807 12.623671 30.775044 -2.391184 17.264811 28.148563 0.406500 4.092900 11.338300 -1.383832 -11.967373 37.179734 -3.180025 -11.987297 31.049582 -7.911746 -18.464729 56.573462 -0.424900 -4.183800 11.594300 -0.026942 -0.202789 -5.026382 -2.428425 0.089420 -3.294454 0.912568 -2.448099 -17.208125 0.829500 -1.363900 -4.411200 47.046716 -5.308722 -77.863704 9.388096 -23.022342 -2.528098 -6.618388 1.893833 -3.152076 -7.125000 0.000000 0.000000 -50.357656 5.871124 -83.624474 -10.380330 25.661167 -3.985734 7.359418 6.631695 -2.499009 7.125000 0.000000 0.000000 
-8.762869 20.688434 0.752178 -10.158272 -80.400183 -167.570908 -2.671985 4.912758 -29.851418 2.337761 11.973777 28.172945 -3.371554 19.901887 28.409076 0.245200 3.186400 8.798000 -1.816364 -11.582355 38.953651 -3.099202 -11.809015 30.536522 -8.128687 -18.907577 57.211109 -0.421300 -4.166200 11.544700 -0.008665 -0.039578 -5.006561 -2.506017 0.156962 -3.224504 0.995115 -2.381869 -16.930637 0.865900 -1.331000 -4.254200 47.590021 -5.400373 -78.698256 8.097614 -21.656780 -1.817159 -7.369836 2.490386 -2.016652 -7.125000 0.000000 0.000000 -51.214986 5.377248 -87.038426 -8.401455 23.661220 -2.872233 7.777610 6.354485 0.223087 7.125000 0.000000 0.000000 
-8.780508 20.517252 0.744745 -11.208089 -80.081976 -166.422253 -1.794339 3.639668 -29.542367 2.027623 11.388565 25.766307 -4.540189 22.694993 28.188024 0.118400 2.218700 6.110400 -2.267512 -11.140743 40.601350 -3.066701 -11.701577 30.257466 -8.336956 -19.296461 57.816269 -0.428900 -4.202700 11.647600 -0.013096 0.124720 -4.986378 -2.656245 0.214585 -3.126101 1.053417 -2.309919 -16.582546 0.896200 -1.288200 -4.087900 47.999716 -5.744929 -80.322056 6.918199 -20.541451 -1.331801 -8.032860 3.258591 -0.577942 -7.125000 0.000000 0.000000 -51.997641 5.002159 -90.088642 -6.551417 21.635068 -1.891808 8.367644 6.062787 3.187481 7.125000 0.000000 0.000000 
-8.799257 20.337528 0.734760 -12.368992 -79.749329 -165.176561 -0.823607 2.036457 -29.106418 1.763565 10.871365 23.608797 -5.871916 25.483863 27.410355 0.030500 1.127900 3.100700 -2.671799 -10.649941 42.084599 -3.083145 -11.675019 30.245675 -8.540291 -19.563020 58.390951 -0.438100 -4.247000 11.772600 -0.041245 0.299082 -4.972579 -2.940117 0.263937 -2.990669 1.076129 -2.217080 -16.164409 0.910800 -1.228600 -3.926600 48.337915 -6.354828 -83.216882 5.838621 -19.759509 -1.065845 -8.407163 4.149757 1.467044 -7.125000 0.000000 0.000000 -52.547628 4.823732 -92.274491 -5.117764 19.942873 -1.181915 9.056725 5.880813 5.734456 7.125000 0.000000 0.000000 
-8.818117 20.152257 0.722002 -13.263414 -79.381231 -164.166947 0.287769 0.078138 -28.593479 1.535669 10.423678 21.736740 -7.324734 28.132541 26.072377 0.000200 -0.084400 -0.231800 -3.005848 -10.120483 43.353883 -3.156423 -11.740104 30.529905 -8.719989 -19.721328 58.891653 -0.449300 -4.300500 11.923600 -0.095716 0.491964 -4.969168 -3.373018 0.313526 -2.758391 1.063374 -2.113950 -15.127716 0.931500 -1.163000 -3.945200 48.586698 -7.137923 -86.726707 5.072754 -19.473332 -1.035525 -8.384507 4.899552 3.708328 -7.125000 0.000000 0.000000 -52.740002 4.917196 -93.410913 -4.292479 18.943669 -0.816113 9.727051 5.887722 7.346967 7.125000 0.000000 0.000000 
-8.836201 19.965544 0.705250 -13.985011 -78.964115 -163.267980 1.514499 -2.182038 -28.071288 1.330117 10.039339 20.163331 -8.792722 30.453897 24.277149 0.031400 -1.143700 -3.144200 -3.291748 -9.560934 44.359433 -3.290434 -11.900401 31.138302 -8.884812 -19.671472 59.334281 -0.438200 -4.247700 11.774600 -0.168523 0.688491 -4.970642 -3.848617 0.369841 -2.459519 1.008558 -2.010015 -14.555971 0.885700 -1.100700 -3.736800 48.564733 -7.921135 -88.884565 5.032734 -19.946014 -1.298060 -8.074254 5.183986 4.724106 -7.125000 0.000000 0.000000 -52.539941 5.303396 -93.136495 -4.183182 18.865190 -0.805296 10.209772 6.168767 7.329873 7.125000 0.000000 0.000000 
-8.854395 19.782159 0.684282 -14.846253 -78.499304 -162.176214 2.784824 -4.634454 -27.595333 1.138315 9.712189 18.877415 -10.145670 32.306948 22.227734 0.084000 -1.869000 -5.143900 -3.597806 -9.002705 45.122841 -3.487396 -12.150028 32.073783 -9.041209 -19.329307 59.731402 -0.388500 -4.002500 11.083600 -0.242733 0.846485 -4.980457 -4.154320 0.424682 -2.087248 0.912869 -1.885298 -13.875797 0.813700 -1.033300 -3.462200 48.124411 -8.574566 -88.728490 5.813617 -21.152899 -1.896705 -7.682106 5.012079 4.154255 -7.125000 0.000000 0.000000 -52.043874 5.906450 -91.487362 -4.797858 19.718780 -1.148403 10.363014 6.671184 5.586862 7.125000 0.000000 0.000000 
-8.874475 19.606540 0.660873 -16.011955 -78.028857 -160.775324 4.016842 -7.121632 -27.205496 0.957101 9.437229 17.854330 -11.233524 33.571075 20.215723 0.125100 -2.279700 -6.279200 -3.968552 -8.500009 45.712231 -3.748141 -12.477591 33.307829 -9.198872 -18.740923 60.117793 -0.308900 -3.573000 9.878300 -0.308247 0.935935 -4.998435 -4.194648 0.464165 -1.700808 0.783397 -1.768509 -13.180887 0.718600 -0.980300 -3.147800 47.359094 -9.010518 -86.762118 7.085749 -22.637748 -2.705991 -7.334637 4.615060 2.599853 -7.125000 0.000000 0.000000 -51.351488 6.593074 -88.797078 -6.065190 21.320919 -1.841418 10.148776 7.270152 2.532771 7.125000 0.000000 0.000000 
-8.898549 19.442792 0.638242 -17.168795 -77.620522 -159.426637 5.145930 -9.354479 -26.976096 0.799535 9.213122 17.058745 -11.877894 34.168300 18.740910 0.152800 -2.518600 -6.941200 -4.357407 -8.112689 46.226217 -4.069763 -12.866304 34.769892 -9.352338 -18.114014 60.499493 -0.235200 -3.121000 8.615700 -0.351739 0.946738 -5.021566 -3.968547 0.479372 -1.376439 0.634537 -1.691721 -12.604916 0.616000 -0.956200 -2.853800 46.462713 -9.177041 -84.052903 8.345915 -23.858836 -3.478593 -7.120185 4.238720 0.873430 -7.125000 0.000000 0.000000 -50.605579 7.202475 -85.552543 -7.716555 23.221532 -2.761079 9.692663 7.798649 -1.011309 7.125000 0.000000 0.000000 
-8.927505 19.293577 0.619493 -17.847830 -77.336699 -158.631341 6.138190 -11.041105 -26.974366 0.681164 9.037751 16.453916 -11.961071 34.080475 18.244647 0.198000 -2.865400 -7.904200 -4.670319 -7.877859 46.753659 -4.439772 -13.293921 36.376510 -9.502757 -17.580797 60.886943 -0.185800 -2.776100 7.656100 -0.367636 0.915189 -5.048545 -3.636036 0.478995 -1.184859 0.486056 -1.688182 -12.268588 0.516600 -0.976000 -2.656700 45.589815 -9.150670 -81.248172 9.346964 -24.667494 -4.083807 -7.058917 3.951280 -0.793694 -7.125000 0.000000 0.000000 -49.883842 7.584237 -82.052448 -9.387850 24.941690 -3.698279 9.232966 8.294184 -4.469074 7.125000 0.000000 0.000000 
-8.960676 19.160115 0.605514 -17.833979 -77.210362 -158.613803 6.992325 -12.091700 -27.208047 0.608487 8.906523 15.994959 -11.516332 33.458820 18.866529 0.299700 -3.519700 -9.729300 -4.864042 -7.810662 47.341560 -4.844861 -13.740047 38.054307 -9.651992 -17.223183 61.285732 -0.166100 -2.625600 7.238000 -0.364769 0.887796 -5.070120 -3.402747 0.477264 -1.106597 0.360592 -1.779163 -12.238366 0.427300 -1.048300 -2.613900 44.817749 -9.059374 -78.625407 10.123452 -25.211643 -4.550969 -7.087004 3.717570 -2.417862 -7.125000 0.000000 0.000000 -49.245887 7.681280 -78.639035 -10.771746 26.192078 -4.460070 8.870351 8.802603 -7.466651 7.125000 0.000000 0.000000 
-8.996732 19.041852 0.595640 -17.290879 -77.218303 -159.188705 7.765791 -12.748091 -27.602820 0.570234 8.815560 15.641240 -10.737018 32.571442 20.269718 0.441100 -4.261600 -11.813900 -4.987574 -7.892680 47.971315 -5.279000 -14.192550 39.766849 -9.800647 -17.065633 61.694702 -0.173800 -2.685600 7.404600 -0.360418 0.903714 -5.084512 -3.388364 0.485906 -1.099092 0.284602 -1.944579 -12.498610 0.361200 -1.156900 -2.746900 44.197528 -9.037268 -76.411676 10.754331 -25.655863 -4.940911 -7.116035 3.513902 -3.873607 -7.125000 0.000000 0.000000 -48.660968 7.551450 -75.403680 -11.835980 27.008987 -5.024168 8.609070 9.344078 -9.952158 7.125000 0.000000 0.000000 
-9.034673 18.937346 0.587653 -16.852180 -77.294192 -159.687942 8.480526 -13.335589 -28.053584 0.547325 8.760751 15.361347 -9.900822 31.723905 21.863297 0.630500 -5.080800 -14.139100 -5.197864 -8.081001 48.587944 -5.740018 -14.642892 41.513132 -9.945973 -16.994715 62.097870 -0.197900 -2.864300 7.901200 -0.376329 0.976206 -5.095987 -3.558374 0.509861 -1.117717 0.279399 -2.157792 -12.934234 0.333600 -1.281500 -3.008900 43.720510 -9.162725 -74.720291 11.331583 -26.129131 -5.324277 -7.072783 3.331822 -5.010446 -7.125000 0.000000 0.000000 -48.111099 7.394679 -72.790773 -12.685678 27.610130 -5.496822 8.439899 9.776314 -11.632553 7.125000 0.000000 0.000000 
-9.073835 18.845488 0.580774 -16.926858 -77.383374 -159.698948 9.062488 -13.855739 -28.516741 0.531386 8.731270 15.135976 -9.106543 31.027932 23.470932 0.829700 -5.811000 -16.237200 -5.586460 -8.319389 49.149414 -6.222648 -15.085954 43.313482 -10.095661 -16.743869 62.504745 -0.208000 -2.936400 8.101700 -0.416293 1.083363 -5.107038 -3.792353 0.543374 -1.136675 0.322657 -2.363458 -13.391979 0.339400 -1.391000 -3.318100 43.338560 -9.412781 -73.465907 11.898315 -26.653356 -5.726776 -6.951861 3.170822 -5.810320 -7.125000 0.000000 0.000000 -47.602540 7.368786 -70.998407 -13.456909 28.202790 -5.986655 8.334470 9.992619 -12.503491 7.125000 0.000000 0.000000 
